<svg xmlns="http://www.w3.org/2000/svg" viewBox="0 0 198 107" xmlns:xlink="http://www.w3.org/1999/xlink"><defs><linearGradient id="a" x1="251.46" x2="159.46" y1="29.91" y2="98.41" gradientUnits="userSpaceOnUse"><stop offset="0" stop-color="#ff8463"/><stop offset=".13" stop-color="#ff9d65"/><stop offset=".39" stop-color="#ffdc6b"/><stop offset=".46" stop-color="#ffed6d"/><stop offset="1" stop-color="#ff9a5d"/></linearGradient><linearGradient id="b" x1="241.61" x2="209.15" y1="112.83" y2="137" href="#a"/><linearGradient id="c" x1="274.99" x2="216.83" y1="57.37" y2="100.67" href="#a"/><linearGradient id="d" x1="241.38" x2="149.38" y1="16.36" y2="84.86" href="#a"/><linearGradient id="e" x1="244.4" x2="152.4" y1="20.42" y2="88.92" href="#a"/></defs><g data-name="Layer 1"><path d="M187.17 51.07a29 29 0 0 1 3.34 1.13l.14.06h.13a4.3 4.3 0 0 0 .65.31l.24.09a24.13 24.13 0 0 1 11.09 9.94c.32.56.62 1.13.9 1.7a26 26 0 0 0-2 6.13l-.31 1.52a15 15 0 0 0-.19 1.57 20 20 0 0 0-.22 3.21 27.4 27.4 0 0 0 2.43 11.54l.33.66a26.92 26.92 0 0 1-16.66 13.24 47 47 0 0 1-2.89-5.68 50.15 50.15 0 0 1-4-19.87 49.4 49.4 0 0 1 7-25.6m0-1a1 1 0 0 0-.87.49 49 49 0 0 0-3 6 50.4 50.4 0 0 0-4 20.1 51.45 51.45 0 0 0 4 20.27 48 48 0 0 0 2.94 5.78 1 1 0 0 0 .87.5 1 1 0 0 0 .24 0A26.5 26.5 0 0 0 199 96.72a26.8 26.8 0 0 0 5.62-7.28 1 1 0 0 0 0-.88 3 3 0 0 0-.16-.33l-.16-.32a26.6 26.6 0 0 1-2.3-11.13 18.6 18.6 0 0 1 .21-3s0-.07 0-.1a11 11 0 0 1 .18-1.46c.09-.48.19-1 .3-1.49a25 25 0 0 1 1.93-5.92 1 1 0 0 0 0-.85c-.29-.6-.6-1.19-.93-1.76a25 25 0 0 0-11.53-10.35h-.09l-.2-.07a3.3 3.3 0 0 1-.53-.26l-.2-.08h-.21a31 31 0 0 0-3.46-1.18 1.2 1.2 0 0 0-.27 0ZM241 104.11c.21.27.37.64.57.92a1.35 1.35 0 0 0 .76-.7l-8.23-12.75h23.19a25.5 25.5 0 0 0 3.09-7.46 31.4 31.4 0 0 0 1-7.56 31.2 31.2 0 0 0-1.22-8.07 29.9 29.9 0 0 0-3.64-8.11 34.4 34.4 0 0 0-6.35-7.24 29.4 29.4 0 0 0-19.27-6.79 27 27 0 0 0-4.29.4 56 56 0 0 0-5.8-7.42 56.6 56.6 0 0 0-10.7-9c.42-.2.81-.42 1.24-.6a49.9 49.9 0 0 1 19.88-4 49.1 49.1 0 0 1 19.88 4A51.76 51.76 0 0 1 278.16 57a49.3 49.3 0 0 1 4 19.72 53.3 53.3 0 0 1-2.65 16.45 49.8 49.8 0 0 1-8.95 16.29L282 127.52h-24.71l-15-23.19a2.5 2.5 0 0 0-.76.7c.16.3 11.77 18 12 18.33l.11.2 2.78 4.49a1 1 0 0 0 .85.47H282a1 1 0 0 0 .88-.52 1 1 0 0 0 0-1l-11.1-17.51a50.8 50.8 0 0 0 8.67-16.06 54.6 54.6 0 0 0 2.7-16.75 50.5 50.5 0 0 0-4.06-20.11 52.66 52.66 0 0 0-27.57-27.74 50.2 50.2 0 0 0-20.28-4.12A51 51 0 0 0 211 28.76c-.27.11-.51.24-.76.36l-.51.25a1 1 0 0 0-.12 1.75 56.4 56.4 0 0 1 16.21 16.17 1 1 0 0 0 .83.46h.16a26.5 26.5 0 0 1 4.13-.38 28.5 28.5 0 0 1 18.63 6.56 33.1 33.1 0 0 1 6.15 7 29.5 29.5 0 0 1 3.52 7.84 30.4 30.4 0 0 1 1.18 7.8 31 31 0 0 1-1 7.32 25.2 25.2 0 0 1-2.68 6.7H234.1a1 1 0 0 0-.84 1.54m3.88 12.92H237a18.7 18.7 0 0 1-3.3.58c-2.13.21-2.51.22-2.58.22a28 28 0 0 1-4.36-.37h-.15a1 1 0 0 0-.84.45 56.4 56.4 0 0 1-16.21 16.17 1 1 0 0 0 .13 1.74l.51.25c.25.13.49.25.76.37a51.2 51.2 0 0 0 20.27 4.05 40.1 40.1 0 0 0 11.59-1.24 55 55 0 0 0 8-2.83 3.3 3.3 0 0 0-.25-.8 59 59 0 0 1-8 2.66 52.7 52.7 0 0 1-11.37 1.21 49.9 49.9 0 0 1-19.88-4c-.43-.19-.82-.41-1.24-.6a57 57 0 0 0 10.7-9 58 58 0 0 0 5.8-7.41 29 29 0 0 0 4.51.38c.22 0 1.1-.07 2.65-.22a19.7 19.7 0 0 0 3.48-.61 4.9 4.9 0 0 0 1.52-.28c-.42.13.24.29.49.19-.2-.29.4-1.22.19-1.49M136.31 25.9l37.24 78.81 1 2.16 9.76 20.65h-.08v.06h-22.82v-.06l-9.75-20.65-15.2-32.19-7.79 16.51-7.44 15.68h25.89l9.81 20.65h-45.52v.06H88.53zm0-1a1 1 0 0 0-.9.57L87.62 127.15a1 1 0 0 0 .06 1 1 1 0 0 0 .85.47h22.86a.9.9 0 0 0 .32-.06h45.22a1 1 0 0 0 .85-.46 1 1 0 0 0 .06-1L148 106.44a1 1 0 0 0-.9-.57h-24.29l6.76-14.25L136.46 77l14.28 30.28 9.74 20.72a1 1 0 0 0 .9.58h22.87a1 1 0 0 0 .72-.31 1 1 0 0 0 .18-.21 1 1 0 0 0 .06-1l-9.76-20.66-.06-.1-1-2.06-37.17-78.77a1 1 0 0 0-.91-.57" class="cls-21" style="fill:#ffed6d" transform="translate(-86 -23)"/><path d="m140.35 25.6 26 .1h17.29a15 15 0 0 1 1.93.11 48.8 48.8 0 0 1 20.48 6.53A52.5 52.5 0 0 1 218 42a54 54 0 0 1 4.53 5.69A48.1 48.1 0 0 1 231.26 76v1.32a48.13 48.13 0 0 1-8.75 28.27 53 53 0 0 1-4.55 5.72 52.1 52.1 0 0 1-11.9 9.63 48.1 48.1 0 0 1-17.54 6.06L179 106.87h3.79a28.7 28.7 0 0 0 6.44-1.22 30.92 30.92 0 0 0 16.67-12.74 28.7 28.7 0 0 0 4.47-14.09v-.22a1.6 1.6 0 0 1 .06-.5v-1a32.6 32.6 0 0 0-4.28-16.37l-.31-.51a28.33 28.33 0 0 0-12.7-11.12 2 2 0 0 1-.3-.11.7.7 0 0 1-.25-.16 5 5 0 0 0-.61-.22c-.86-.36-1.75-.69-2.66-1s-1.92-.57-2.91-.79a2 2 0 0 1-.33 0 2 2 0 0 0-.33 0 25.4 25.4 0 0 0-5-.44h-30.56zm0-1a1 1 0 0 0-.9 1.43l9.84 20.75a1 1 0 0 0 .9.57h30.61a24 24 0 0 1 4.76.42.8.8 0 0 0 .21 0h.53a29 29 0 0 1 5.32 1.69h.07l.39.14a1.4 1.4 0 0 0 .42.23 1.6 1.6 0 0 0 .29.11A27.5 27.5 0 0 1 205 60.74l.15.25.15.24a31.8 31.8 0 0 1 4.15 15.88V78a3 3 0 0 0-.06.63v.19a27.9 27.9 0 0 1-4.31 13.59 29.2 29.2 0 0 1-4.81 5.72 28.8 28.8 0 0 1-11.3 6.59 28 28 0 0 1-6.2 1.18H179a1 1 0 0 0-.91 1.43l9.5 20.14a1 1 0 0 0 .91.57h.14a49.3 49.3 0 0 0 17.9-6.25 53.4 53.4 0 0 0 12.13-9.81 55 55 0 0 0 4.64-5.82 49.34 49.34 0 0 0 8.93-28.85V76a49.33 49.33 0 0 0-8.95-28.87 56 56 0 0 0-4.62-5.8 53.7 53.7 0 0 0-12.1-9.8 50.1 50.1 0 0 0-20.9-6.67 16 16 0 0 0-2-.11h-17.29l-26-.1Z" class="cls-21" style="fill:#ffed6d" transform="translate(-86 -23)"/><path fill="url(#a)" d="m201.38 72 .31-1.52a26 26 0 0 1 2-6.13c-.28-.57-.58-1.14-.9-1.7a24.13 24.13 0 0 0-11.09-9.94l-.24-.09a4.3 4.3 0 0 1-.65-.31h-.13l-.14-.06a29 29 0 0 0-3.34-1.13 49.4 49.4 0 0 0-7 25.6 50.15 50.15 0 0 0 4 19.87 47 47 0 0 0 2.89 5.68A26.92 26.92 0 0 0 203.73 89l-.33-.66a27.4 27.4 0 0 1-2.4-11.56 20 20 0 0 1 .22-3.21 15 15 0 0 1 .16-1.57" transform="translate(-86 -23)"/><path fill="url(#b)" d="M238.73 105.73a10 10 0 0 0-1.48.31 19.7 19.7 0 0 1-3.48.61c-1.55.15-2.43.22-2.65.22a29 29 0 0 1-4.51-.38 58 58 0 0 1-5.8 7.41 57 57 0 0 1-10.7 9c.42.19.81.41 1.24.6a49.9 49.9 0 0 0 19.88 4 52.7 52.7 0 0 0 11.37-1.21 59 59 0 0 0 8-2.66c-3.59-5-7.74-12.32-11.38-18a1.05 1.05 0 0 1-.49.1" transform="translate(-86 -23)"/><path fill="url(#c)" d="m253.12 121.33 4.17 6.19H282l-11.49-18.11a49.8 49.8 0 0 0 8.95-16.29 53.3 53.3 0 0 0 2.65-16.45 49.3 49.3 0 0 0-4-19.72 51.76 51.76 0 0 0-27.05-27.22 49.1 49.1 0 0 0-19.88-4 49.9 49.9 0 0 0-19.88 4c-.43.18-.82.4-1.24.6a56.6 56.6 0 0 1 10.7 9 56 56 0 0 1 5.8 7.42 27 27 0 0 1 4.29-.4 29.4 29.4 0 0 1 19.27 6.79 34.4 34.4 0 0 1 6.35 7.24 29.9 29.9 0 0 1 3.64 8.11 31.2 31.2 0 0 1 1.22 8.07 31.4 31.4 0 0 1-1 7.56 25.5 25.5 0 0 1-3.09 7.46H234.1l8.23 12.75c-.15.27.48-.2 0 0" transform="translate(-86 -23)"/><path fill="url(#d)" d="m174.57 106.87-1.02-2.16-37.24-78.81-47.78 101.68h22.86l.02-.06h45.53l-9.82-20.65h-25.89l7.44-15.68 7.79-16.51 15.18 32.19 9.75 20.65.02.06h22.87l-.03-.06h.08z" transform="translate(-86 -23)"/><path fill="url(#e)" d="M218 111.26a53 53 0 0 0 4.55-5.72 48.13 48.13 0 0 0 8.75-28.27V76a48.1 48.1 0 0 0-8.77-28.3A54 54 0 0 0 218 42a52.5 52.5 0 0 0-11.88-9.62 48.8 48.8 0 0 0-20.48-6.53 15 15 0 0 0-1.93-.11h-17.33l-26-.1 9.84 20.75h30.58a25.4 25.4 0 0 1 5 .44 2 2 0 0 1 .33 0 2 2 0 0 0 .33 0 29 29 0 0 1 5.57 1.79 5 5 0 0 1 .61.22.7.7 0 0 0 .25.16 2 2 0 0 0 .3.11 28.33 28.33 0 0 1 12.7 11.12l.31.51a32.6 32.6 0 0 1 4.28 16.37v1a1.6 1.6 0 0 0-.06.5v.22a28.7 28.7 0 0 1-4.47 14.09 30.92 30.92 0 0 1-16.67 12.74 28.7 28.7 0 0 1-6.44 1.22H179l9.5 20.14a48.1 48.1 0 0 0 17.54-6.12 52.1 52.1 0 0 0 11.96-9.64" transform="translate(-86 -23)"/><path d="M105.84 117.9a1 1 0 0 1-.42-.1 1 1 0 0 1-.47-1.32L136 51.63a1 1 0 0 1 .89-.56 1 1 0 0 1 .89.55l16.65 34.43a1 1 0 1 1-1.77.86l-15.73-32.59-30.2 63a1 1 0 0 1-.89.58" class="cls-27" style="fill:#1b1b41" transform="translate(-86 -23)"/><path d="M155.33 93.15a3.64 3.64 0 1 1 3.67-3.64 3.65 3.65 0 0 1-3.67 3.64m0-5.31a1.67 1.67 0 1 0 1.67 1.67 1.67 1.67 0 0 0-1.67-1.67m-11.7 30.06h-18.17a1 1 0 0 1 0-2h18.17a1 1 0 1 1 0 2" class="cls-27" style="fill:#1b1b41" transform="translate(-86 -23)"/><path d="M122.94 120.55a3.64 3.64 0 1 1 3.64-3.64 3.65 3.65 0 0 1-3.64 3.64m0-5.31a1.67 1.67 0 1 0 1.67 1.67 1.67 1.67 0 0 0-1.67-1.67m57.81-77.77h-29.14a1 1 0 1 1 0-2h29.14a1 1 0 0 1 0 2" class="cls-27" style="fill:#1b1b41" transform="translate(-86 -23)"/><path d="M183.4 40.13a3.64 3.64 0 1 1 3.6-3.64 3.65 3.65 0 0 1-3.6 3.64m0-5.31a1.67 1.67 0 1 0 1.67 1.67 1.67 1.67 0 0 0-1.67-1.67m82.27 63.03H253a1 1 0 0 0-.85.49 1 1 0 0 0 0 1l10.67 18.85a1 1 0 0 0 .86.5 1 1 0 0 0 .48-.12 1 1 0 0 0 .38-1.35l-9.84-17.38h11a1 1 0 0 0 0-2Z" class="cls-27" style="fill:#1b1b41" transform="translate(-86 -23)"/><path d="M265.58 124.19a3.64 3.64 0 1 1 3.64-3.64 3.65 3.65 0 0 1-3.64 3.64m0-5.31a1.67 1.67 0 1 0 1.67 1.67 1.67 1.67 0 0 0-1.67-1.67m.7-19.06a1 1 0 0 1-.86-1.47A40.73 40.73 0 0 0 232 37.58a1 1 0 0 1-.93-1 1 1 0 0 1 1-.94 42.71 42.71 0 0 1 35 63.71 1 1 0 0 1-.79.47m-63.06 12.76a1 1 0 0 1-.8-.41 1 1 0 0 1 .22-1.38 42.77 42.77 0 0 0 17.66-34.55 42.33 42.33 0 0 0-12.82-30.49 1 1 0 0 1 1.37-1.41 44.26 44.26 0 0 1 13.42 31.9 44.73 44.73 0 0 1-18.48 36.15.93.93 0 0 1-.57.19" class="cls-27" style="fill:#1b1b41" transform="translate(-86 -23)"/><path d="M200.15 117a3.64 3.64 0 1 1 3.64-3.64 3.64 3.64 0 0 1-3.64 3.64m0-5.31a1.67 1.67 0 1 0 1.67 1.67 1.67 1.67 0 0 0-1.67-1.71Z" class="cls-27" style="fill:#1b1b41" transform="translate(-86 -23)"/><g opacity=".1"><path d="M187.06 102.18A26.87 26.87 0 0 0 203.72 89c-.11-.23-.23-.44-.33-.67A27.3 27.3 0 0 1 201 76.74a19.5 19.5 0 0 1 .22-3.2 15 15 0 0 1 .19-1.57c.09-.5.19-1 .31-1.52a26 26 0 0 1 2-6.13c-.27-.57-.57-1.14-.89-1.7a24.08 24.08 0 0 0-11.09-9.94l-.24-.09a4 4 0 0 1-.66-.32l-.14-.05h-.13a29 29 0 0 0-3.41-1.22 49.55 49.55 0 0 0-7 25.6 50.2 50.2 0 0 0 4 19.88 46 46 0 0 0 2.9 5.7M251.1 29.7a49.1 49.1 0 0 0-19.88-4 49.9 49.9 0 0 0-19.88 4c-.43.19-.82.41-1.24.6a57.4 57.4 0 0 1 10.7 9.05 58 58 0 0 1 5.8 7.42 28 28 0 0 1 4.29-.39 29.35 29.35 0 0 1 19.27 6.79 35.7 35.7 0 0 1 5.17 5.55 80.5 80.5 0 0 0 6.37-22.79 54 54 0 0 0-10.6-6.23m-114.8-3.84-21.74 46.27a81.7 81.7 0 0 0 15.3 16.47l6.58-14 11.93 25.29a80.8 80.8 0 0 0 26 6.59l-.87-1.85Z" class="cls-29" style="fill:#fff" transform="translate(-86 -23)"/><path d="M231.25 76.58v-.67a48.16 48.16 0 0 0-8.77-28.29 53.5 53.5 0 0 0-4.48-5.69 52.5 52.5 0 0 0-11.88-9.63 48.64 48.64 0 0 0-20.48-6.52 13 13 0 0 0-1.93-.11h-17.34l-26-.1 9.84 20.75h30.6a24.5 24.5 0 0 1 5 .44h.34a2 2 0 0 0 .33 0c1 .23 2 .5 2.91.8s1.8.61 2.66 1l.61.22a.7.7 0 0 0 .25.17l.3.11a28.2 28.2 0 0 1 12.63 11.14l.32.5a32.66 32.66 0 0 1 4.28 16.37v1a1.5 1.5 0 0 0-.06.5v.22a28.86 28.86 0 0 1-4.47 14.09 30.3 30.3 0 0 1-5 5.92 29.57 29.57 0 0 1-17.35 8 80.9 80.9 0 0 0 45.85-15.87 50.7 50.7 0 0 0 1.81-13.65Z" class="cls-29" style="fill:#fff" transform="translate(-86 -23)"/></g><g opacity=".2"><path d="M239 105.72a6 6 0 0 0-1.79.32 19.7 19.7 0 0 1-3.48.61c-1.55.15-2.43.22-2.65.22a25 25 0 0 1-2.76-.16 69 69 0 0 0 12 1.06 14 14 0 0 0-1.33-2c-.19-.01.38.12.01-.05M278.16 57a51.76 51.76 0 0 0-27.05-27.22 49.1 49.1 0 0 0-19.88-4 49.9 49.9 0 0 0-19.88 4c-.43.18-.82.4-1.24.6a56.6 56.6 0 0 1 10.7 9 56 56 0 0 1 5.8 7.42 27 27 0 0 1 4.29-.4 29.4 29.4 0 0 1 19.27 6.79 34.4 34.4 0 0 1 6.35 7.24 29.9 29.9 0 0 1 3.64 8.11 31.2 31.2 0 0 1 1.22 8.07 31.4 31.4 0 0 1-1 7.56 25.5 25.5 0 0 1-3.09 7.46H234.1l8.23 12.75c-.15.27.48-.2 0 0a36 36 0 0 1 2.14 3.32c13-.47 23.58-4.48 33.8-11.19.45-1.1.86-2.21 1.22-3.34a53.3 53.3 0 0 0 2.65-16.45A49.3 49.3 0 0 0 278.16 57" class="cls-29" style="fill:#fff" transform="translate(-86 -23)"/><path d="M231.26 76.61V76a48.1 48.1 0 0 0-8.77-28.3A54 54 0 0 0 218 42a52.5 52.5 0 0 0-11.88-9.62 48.8 48.8 0 0 0-20.48-6.53 15 15 0 0 0-1.93-.11h-11.35a68.5 68.5 0 0 0-.76 20.65h9.2a25.4 25.4 0 0 1 5 .44 2 2 0 0 1 .33 0 2 2 0 0 0 .33 0 29 29 0 0 1 5.57 1.79 5 5 0 0 1 .61.22.7.7 0 0 0 .25.16 2 2 0 0 0 .3.11 28.33 28.33 0 0 1 12.7 11.12l.31.51a32.6 32.6 0 0 1 4.28 16.37v1a1.6 1.6 0 0 0-.06.5v.22a28.7 28.7 0 0 1-4.47 14.09 29 29 0 0 1-3 3.87 68.7 68.7 0 0 0 19.61 8.67 48.13 48.13 0 0 0 8.69-28.18Z" class="cls-29" style="fill:#fff" transform="translate(-86 -23)"/></g><path d="m238.73 105.24 12.14 19.21.95-.32-12.37-19.67z" class="cls-21" style="fill:#ffed6d" transform="translate(-86 -23)"/></g></svg>